<?xml version="1.0" encoding="iso-8859-1"?>
<!-- Generator: Adobe Illustrator 19.0.0, SVG Export Plug-In . SVG Version: 6.00 Build 0)  -->
<svg version="1.1" id="Layer_1" xmlns="http://www.w3.org/2000/svg" xmlns:xlink="http://www.w3.org/1999/xlink" x="0px" y="0px"
	 viewBox="0 0 512 512" style="enable-background:new 0 0 512 512;" xml:space="preserve">
<path style="fill:#A78966;" d="M355.097,24.774h-98.854h-99.34c-13.682,0-24.774,11.091-24.774,24.774v99.097
	c0,13.68,11.092,24.774,24.774,24.774h99.34h98.854c13.682,0,24.774-11.094,24.774-24.774V49.548
	C379.871,35.865,368.779,24.774,355.097,24.774z M330.323,123.871h-74.08h-74.565V74.323h74.565h74.08V123.871z"/>
<path style="fill:#806749;" d="M181.677,123.873v-49.55h74.567V24.774h-99.341c-13.682,0-24.774,11.091-24.774,24.774v99.097
	c0,13.68,11.092,24.774,24.774,24.774h99.341v-49.548h-74.567V123.873z"/>
<path style="fill:#FFB655;" d="M504.743,131.126c-4.644-4.644-10.945-7.256-17.517-7.256H256.243H24.774
	C11.092,123.871,0,134.963,0,148.645v313.803c0,13.684,11.092,24.774,24.774,24.774l231.469,0.003h230.983
	c6.572,0,12.873-2.61,17.517-7.257c4.648-4.646,7.257-10.947,7.257-17.517V148.645C512,142.075,509.39,135.774,504.743,131.126z"/>
<path style="fill:#EE8700;" d="M24.774,123.873C11.092,123.873,0,134.965,0,148.647V462.45c0,13.684,11.092,24.774,24.774,24.774
	l231.47,0.002V123.873H24.774z"/>
<path style="fill:#FF0C38;" d="M330.567,231.227c-32.297,0-59.833,20.713-70.061,49.547l-87.189,0.005
	c-0.031,0-0.059-0.007-0.092-0.007c-0.033,0-0.061,0.007-0.092,0.007h-41.249c-13.682,0.002-24.773,11.094-24.773,24.776
	c0,13.682,11.094,24.774,24.776,24.773h16.564v16.595c0,13.682,11.092,24.774,24.774,24.774s24.774-11.092,24.774-24.774v-16.597
	l62.509-0.003c10.228,28.836,37.767,49.55,70.063,49.55c19.852,0,38.516-7.733,52.553-21.77
	c14.039-14.039,21.768-32.704,21.767-52.553C404.89,264.567,371.548,231.227,330.567,231.227z M348.087,323.067
	c-4.679,4.679-10.901,7.257-17.519,7.257h-0.003c-13.66,0-24.773-11.115-24.774-24.774c0-13.66,11.114-24.774,24.774-24.774
	s24.774,11.114,24.774,24.776C355.341,312.168,352.765,318.388,348.087,323.067z"/>
<g>
</g>
<g>
</g>
<g>
</g>
<g>
</g>
<g>
</g>
<g>
</g>
<g>
</g>
<g>
</g>
<g>
</g>
<g>
</g>
<g>
</g>
<g>
</g>
<g>
</g>
<g>
</g>
<g>
</g>
</svg>
